<?xml version="1.0" encoding="utf-8"?>
<!-- Generator: Adobe Illustrator 19.2.1, SVG Export Plug-In . SVG Version: 6.00 Build 0)  -->
<svg version="1.1" id="Layer_1" xmlns="http://www.w3.org/2000/svg" xmlns:xlink="http://www.w3.org/1999/xlink" x="0px" y="0px"
	 viewBox="0 0 25.8 24.7" style="enable-background:new 0 0 25.8 24.7;" xml:space="preserve">
<g>
	<g>
		<path d="M11.9,18.6c-0.7,0-1.3-0.1-2-0.3c0.2-0.4,0.3-0.8,0.3-1.2c0-0.3-0.1-0.6-0.1-0.9l-0.8-2.9H4.2l-0.6,2c-0.3,1-0.4,2-0.4,3
			c-0.5,0.2-1,0.2-1.5,0.2c-0.5,0-1.1-0.1-1.7-0.3c0.5-0.5,1.1-1.4,1.3-2.1l5-14l2-0.3l4.2,14c0.3,0.9,0.8,1.8,1.4,2.4
			C13.3,18.5,12.7,18.6,11.9,18.6z M7,4.7L7,4.7l-2.3,7.3l4.3-0.1L7,4.7z"/>
	</g>
	<g>
		<path d="M25.4,5.4c-1-0.7-2.3-1-3.5-1H20v4.7h2.4c0.8,0,1.7-0.1,2.5-0.3c0.1,0.3,0.3,0.8,0.3,1.2c0,1-0.7,1.6-2.9,1.6H20v3.1
			c0,1.5,0.3,2.6,1.1,3.5c-1,0.2-2,0.4-3.4,0.4c-0.9,0-1.8-0.1-2.6-0.4c0.4-0.7,0.7-2.1,0.7-3.1V5.7c0-1-0.2-2.5-0.5-3.5
			C16.8,2,18,2,19.4,2H24c1.2,0,1.8,0.6,1.8,1.5C25.8,4,25.6,4.8,25.4,5.4z"/>
	</g>
</g>
</svg>
